<?xml version="1.0" encoding="UTF-8" standalone="no"?>
<svg width="28px" height="28px" viewBox="0 0 28 28" version="1.1" xmlns="http://www.w3.org/2000/svg" xmlns:xlink="http://www.w3.org/1999/xlink" xmlns:sketch="http://www.bohemiancoding.com/sketch/ns">
    <!-- Generator: Sketch 3.1 (8751) - http://www.bohemiancoding.com/sketch -->
    <title>Fill 214</title>
    <desc>Created with Sketch.</desc>
    <defs></defs>
    <g id="Page-1" stroke="none" stroke-width="1" fill="none" fill-rule="evenodd" sketch:type="MSPage">
        <g id="Artboard-1" sketch:type="MSArtboardGroup" transform="translate(-365.000000, -317.000000)" stroke="#40260B" fill="#40260B">
            <path d="M381,323 L375,323 L375,319 C374.969,318.012 375.021,317.968 376,318 L380,318 C380.98,318.007 381.004,317.967 381,319 L381,323 L381,323 Z M381,338 C378.946,337.999 375.582,338 375,338 L375,325 L381,325 L381,338 L381,338 Z M378,345.257 L375,340 L381,340 L378,345.257 L378,345.257 Z M381,316 L375,316 C373.79,316 373,316.779 373,318 L373,340.213 L377,347.275 C377.604,348.206 378.396,348.206 379,347.275 L383,340.213 L383,318 C383,316.779 382.21,316.001 381,316 L381,316 Z" id="Fill-214" sketch:type="MSShapeGroup" transform="translate(378.000000, 331.986625) rotate(45.000000) translate(-378.000000, -331.986625) "></path>
        </g>
    </g>
</svg>