<?xml version="1.0" encoding="UTF-8" standalone="no"?>
<svg width="26px" height="28px" viewBox="0 0 26 28" version="1.1" xmlns="http://www.w3.org/2000/svg" xmlns:xlink="http://www.w3.org/1999/xlink" xmlns:sketch="http://www.bohemiancoding.com/sketch/ns">
    <!-- Generator: Sketch 3.1 (8751) - http://www.bohemiancoding.com/sketch -->
    <title>Fill 99</title>
    <desc>Created with Sketch.</desc>
    <defs></defs>
    <g id="Page-1" stroke="none" stroke-width="1" fill="none" fill-rule="evenodd" sketch:type="MSPage">
        <g id="Artboard-1" sketch:type="MSArtboardGroup" transform="translate(-344.000000, -461.000000)" stroke="#40260B" fill="#40260B">
            <path d="M364,486 C362.343,486 361,484.657 361,483 C361,481.343 362.343,480 364,480 C365.657,480 367,481.343 367,483 C367,484.657 365.657,486 364,486 L364,486 Z M350,478 C348.343,478 347,476.657 347,475 C347,473.344 348.343,472 350,472 C351.657,472 353,473.344 353,475 C353,476.657 351.657,478 350,478 L350,478 Z M364,464 C365.657,464 367,465.343 367,467 C367,468.657 365.657,470 364,470 C362.343,470 361,468.657 361,467 C361,465.343 362.343,464 364,464 L364,464 Z M359.796,480.312 L354.441,477.252 C354.787,476.572 355,475.814 355,475 C355,474.497 354.903,474.021 354.765,473.563 L360.336,470.38 C361.249,471.37 362.547,472 364,472 C366.762,472 369,469.762 369,467 C369,464.238 366.762,462 364,462 C361.238,462 359,464.238 359,467 C359,467.503 359.097,467.979 359.235,468.438 L353.664,471.62 C352.751,470.631 351.453,470 350,470 C347.238,470 345,472.238 345,475 C345,477.762 347.238,480 350,480 C351.14,480 352.179,479.604 353.02,478.962 L359.055,482.46 C359.035,482.64 359,482.814 359,483 C359,485.762 361.238,488 364,488 C366.762,488 369,485.762 369,483 C369,480.238 366.762,478 364,478 C362.23,478 360.685,478.925 359.796,480.312 Z" id="Fill-99" sketch:type="MSShapeGroup"></path>
        </g>
    </g>
</svg>