<?xml version="1.0" encoding="UTF-8" standalone="no"?>
<svg width="29px" height="30px" viewBox="0 0 29 30" version="1.1" xmlns="http://www.w3.org/2000/svg" xmlns:xlink="http://www.w3.org/1999/xlink" xmlns:sketch="http://www.bohemiancoding.com/sketch/ns">
    <!-- Generator: Sketch 3.1 (8751) - http://www.bohemiancoding.com/sketch -->
    <title>Fill 12</title>
    <desc>Created with Sketch.</desc>
    <defs></defs>
    <g id="Page-1" stroke="none" stroke-width="1" fill="none" fill-rule="evenodd" sketch:type="MSPage">
        <g id="Artboard-1" sketch:type="MSArtboardGroup" transform="translate(-383.000000, -371.000000)" stroke="#40260B" fill="#40260B">
            <path d="M401.02,392.4025 L401.02,387.0325 C401.02,387.0325 398.655,387.0125 398,387.0125 C393.83,387.0125 388.16,390.2625 386.002,393.0325 C386.034,389.2725 390.938,381.2325 398,381.0125 C398.521,380.9925 401.02,381.0225 401.02,381.0225 L401.02,375.6125 L408.677,384.0125 L401.02,392.4025 L401.02,392.4025 Z M410.715,383.2525 L400.726,372.2925 C400.33,371.9025 399.688,371.9025 399.292,372.2925 C399.064,372.5225 398.983,372.8225 399.017,373.1225 L399.017,379.0225 C390.724,379.0225 384,385.7425 384,394.0325 C384,396.1625 384.448,398.1825 385.246,400.0225 C386.431,393.7625 392.4,389.0125 399,389.0125 C399,389.3525 399.017,394.9025 399.017,394.9025 C398.983,395.1925 399.064,395.5025 399.292,395.7225 C399.294,395.7325 399.298,395.7325 399.3,395.7325 C399.482,395.9225 399.735,396.0425 400.019,396.0425 C400.33,396.0425 400.597,395.8925 400.781,395.6625 L410.715,384.7725 C410.926,384.5625 411.016,384.2825 411.002,384.0125 C411.016,383.7325 410.926,383.4625 410.715,383.2525 L410.715,383.2525 Z" id="Fill-12" sketch:type="MSShapeGroup"></path>
        </g>
    </g>
</svg>