<?xml version="1.0" encoding="UTF-8" standalone="no"?>
<svg width="29px" height="30px" viewBox="0 0 29 30" version="1.1" xmlns="http://www.w3.org/2000/svg" xmlns:xlink="http://www.w3.org/1999/xlink" xmlns:sketch="http://www.bohemiancoding.com/sketch/ns">
    <!-- Generator: Sketch 3.1 (8751) - http://www.bohemiancoding.com/sketch -->
    <title>Fill 13</title>
    <desc>Created with Sketch.</desc>
    <defs></defs>
    <g id="Page-1" stroke="none" stroke-width="1" fill="none" fill-rule="evenodd" sketch:type="MSPage">
        <g id="Artboard-1" sketch:type="MSArtboardGroup" transform="translate(-333.000000, -357.000000)" stroke="#40260B" fill="#40260B">
            <path d="M347.003408,373.0125 C346.349408,373.0125 343.983408,373.0325 343.983408,373.0325 L343.983408,378.4025 L336.326408,370.0125 L343.983408,361.6125 L343.983408,367.0225 C343.983408,367.0225 346.483408,366.9925 347.003408,367.0125 C354.065408,367.2325 358.969408,375.2725 359.001408,379.0325 C356.843408,376.2625 351.173408,373.0125 347.003408,373.0125 L347.003408,373.0125 Z M345.986408,365.0225 L345.986408,359.1225 C346.020408,358.8225 345.939408,358.5225 345.711408,358.2925 C345.315408,357.9025 344.673408,357.9025 344.277408,358.2925 L334.288408,369.2525 C334.077408,369.4625 333.987408,369.7325 334.001408,370.0125 C333.987408,370.2825 334.077408,370.5625 334.288408,370.7725 L344.222408,381.6625 C344.406408,381.8925 344.673408,382.0425 344.984408,382.0425 C345.268408,382.0425 345.521408,381.9225 345.703408,381.7325 C345.705408,381.7325 345.709408,381.7325 345.711408,381.7225 C345.939408,381.5025 346.020408,381.1925 345.986408,380.9025 C345.986408,380.9025 346.003408,375.3525 346.003408,375.0125 C352.603408,375.0125 358.572408,379.7625 359.757408,386.0225 C360.555408,384.1825 361.003408,382.1625 361.003408,380.0325 C361.003408,371.7425 354.279408,365.0225 345.986408,365.0225 L345.986408,365.0225 Z" id="Fill-13" sketch:type="MSShapeGroup"></path>
        </g>
    </g>
</svg>